<mxfile host="app.diagrams.net" modified="2023-07-23T19:21:00.502Z" agent="Mozilla/5.0 (Windows NT 10.0; Win64; x64) AppleWebKit/537.36 (KHTML, like Gecko) Chrome/114.0.0.0 Safari/537.36" etag="P3Y8ZnlsxjZJHAYKGyXo" version="21.6.5" type="device">
  <diagram name="Page-1" id="2c0d36ab-eaac-3732-788b-9136903baeff">
    <mxGraphModel dx="1431" dy="1066" grid="1" gridSize="10" guides="1" tooltips="1" connect="1" arrows="1" fold="1" page="1" pageScale="1.5" pageWidth="1169" pageHeight="827" background="none" math="0" shadow="0">
      <root>
        <mxCell id="0" />
        <mxCell id="1" parent="0" />
        <mxCell id="122" value="Nav Bar" style="fillColor=#10739E;strokeColor=none;opacity=30;verticalAlign=top;fontSize=19;movable=1;resizable=1;rotatable=1;deletable=1;editable=1;locked=0;connectable=1;" parent="1" vertex="1">
          <mxGeometry x="97" y="150" width="1470" height="275.5" as="geometry" />
        </mxCell>
        <mxCell id="vX5TqxPlbHoUfKtW-G97-124" style="edgeStyle=orthogonalEdgeStyle;rounded=0;orthogonalLoop=1;jettySize=auto;html=1;startArrow=classic;startFill=1;exitX=0.25;exitY=1;exitDx=0;exitDy=0;" edge="1" parent="1" source="2" target="10">
          <mxGeometry relative="1" as="geometry" />
        </mxCell>
        <mxCell id="vX5TqxPlbHoUfKtW-G97-126" style="edgeStyle=orthogonalEdgeStyle;rounded=0;orthogonalLoop=1;jettySize=auto;html=1;exitX=0.75;exitY=1;exitDx=0;exitDy=0;" edge="1" parent="1" source="2" target="vX5TqxPlbHoUfKtW-G97-125">
          <mxGeometry relative="1" as="geometry">
            <mxPoint x="940" y="230" as="sourcePoint" />
            <Array as="points">
              <mxPoint x="899" y="300" />
              <mxPoint x="972" y="300" />
            </Array>
          </mxGeometry>
        </mxCell>
        <mxCell id="vX5TqxPlbHoUfKtW-G97-128" style="edgeStyle=orthogonalEdgeStyle;rounded=0;orthogonalLoop=1;jettySize=auto;html=1;exitX=0.75;exitY=1;exitDx=0;exitDy=0;" edge="1" parent="1" source="2" target="vX5TqxPlbHoUfKtW-G97-127">
          <mxGeometry relative="1" as="geometry">
            <mxPoint x="950" y="230" as="sourcePoint" />
            <Array as="points">
              <mxPoint x="899" y="300" />
              <mxPoint x="1215" y="300" />
            </Array>
          </mxGeometry>
        </mxCell>
        <mxCell id="2" value="Home Page" style="rounded=1;fillColor=#dae8fc;strokeColor=#6c8ebf;fontStyle=1;fontFamily=Tahoma;fontSize=14" parent="1" vertex="1">
          <mxGeometry x="757" y="185.5" width="190" height="80" as="geometry" />
        </mxCell>
        <mxCell id="vX5TqxPlbHoUfKtW-G97-175" style="edgeStyle=orthogonalEdgeStyle;rounded=0;orthogonalLoop=1;jettySize=auto;html=1;exitX=1;exitY=0.5;exitDx=0;exitDy=0;entryX=0.5;entryY=0;entryDx=0;entryDy=0;" edge="1" parent="1" source="4" target="122">
          <mxGeometry relative="1" as="geometry">
            <mxPoint x="1640" y="120" as="targetPoint" />
            <Array as="points">
              <mxPoint x="1600" y="376" />
              <mxPoint x="1600" y="100" />
              <mxPoint x="832" y="100" />
            </Array>
          </mxGeometry>
        </mxCell>
        <mxCell id="vX5TqxPlbHoUfKtW-G97-183" value="Links to all the pages in the nav bar" style="edgeLabel;html=1;align=center;verticalAlign=middle;resizable=0;points=[];fontSize=14;" vertex="1" connectable="0" parent="vX5TqxPlbHoUfKtW-G97-175">
          <mxGeometry x="-0.2737" y="5" relative="1" as="geometry">
            <mxPoint x="-52" y="-5" as="offset" />
          </mxGeometry>
        </mxCell>
        <mxCell id="4" value="Site Map" style="rounded=1;fillColor=#dae8fc;strokeColor=#6c8ebf;fontStyle=1;fontFamily=Tahoma;fontSize=14" parent="1" vertex="1">
          <mxGeometry x="1361.9999999999998" y="335.5" width="190" height="80" as="geometry" />
        </mxCell>
        <mxCell id="9" value="" style="edgeStyle=elbowEdgeStyle;elbow=vertical;strokeWidth=2;rounded=0;exitX=0.75;exitY=1;exitDx=0;exitDy=0;" parent="1" source="2" target="4" edge="1">
          <mxGeometry x="337" y="215.5" width="100" height="100" as="geometry">
            <mxPoint x="337" y="315.5" as="sourcePoint" />
            <mxPoint x="437" y="215.5" as="targetPoint" />
            <Array as="points">
              <mxPoint x="1170" y="300" />
            </Array>
          </mxGeometry>
        </mxCell>
        <mxCell id="vX5TqxPlbHoUfKtW-G97-182" style="edgeStyle=orthogonalEdgeStyle;rounded=0;orthogonalLoop=1;jettySize=auto;html=1;entryX=0;entryY=0.5;entryDx=0;entryDy=0;" edge="1" parent="1" source="10" target="vX5TqxPlbHoUfKtW-G97-181">
          <mxGeometry relative="1" as="geometry" />
        </mxCell>
        <mxCell id="10" value="About Me" style="rounded=1;fillColor=#dae8fc;strokeColor=#6c8ebf;fontStyle=1;fontFamily=Tahoma;fontSize=14" parent="1" vertex="1">
          <mxGeometry x="620" y="335.5" width="190" height="80" as="geometry" />
        </mxCell>
        <mxCell id="vX5TqxPlbHoUfKtW-G97-142" value="" style="edgeStyle=orthogonalEdgeStyle;rounded=0;orthogonalLoop=1;jettySize=auto;html=1;entryX=0;entryY=0.5;entryDx=0;entryDy=0;" edge="1" parent="1" source="12" target="vX5TqxPlbHoUfKtW-G97-141">
          <mxGeometry relative="1" as="geometry" />
        </mxCell>
        <mxCell id="vX5TqxPlbHoUfKtW-G97-166" style="edgeStyle=orthogonalEdgeStyle;rounded=0;orthogonalLoop=1;jettySize=auto;html=1;exitX=0.5;exitY=1;exitDx=0;exitDy=0;entryX=0;entryY=0.5;entryDx=0;entryDy=0;" edge="1" parent="1" source="12" target="vX5TqxPlbHoUfKtW-G97-163">
          <mxGeometry relative="1" as="geometry" />
        </mxCell>
        <mxCell id="vX5TqxPlbHoUfKtW-G97-172" style="edgeStyle=orthogonalEdgeStyle;rounded=0;orthogonalLoop=1;jettySize=auto;html=1;exitX=0.5;exitY=1;exitDx=0;exitDy=0;entryX=0;entryY=0.5;entryDx=0;entryDy=0;" edge="1" parent="1" source="12" target="vX5TqxPlbHoUfKtW-G97-169">
          <mxGeometry relative="1" as="geometry" />
        </mxCell>
        <mxCell id="12" value="Projects" style="rounded=1;fillColor=#dae8fc;strokeColor=#6c8ebf;fontStyle=1;fontFamily=Tahoma;fontSize=14" parent="1" vertex="1">
          <mxGeometry x="359.9999999999999" y="335.5" width="190" height="80" as="geometry" />
        </mxCell>
        <mxCell id="13" value="Skills" style="rounded=1;fillColor=#dae8fc;strokeColor=#6c8ebf;fontStyle=1;fontFamily=Tahoma;fontSize=14" parent="1" vertex="1">
          <mxGeometry x="107" y="335.5" width="190" height="80" as="geometry" />
        </mxCell>
        <mxCell id="59" value="" style="edgeStyle=elbowEdgeStyle;elbow=vertical;strokeWidth=2;rounded=0;startArrow=classic;startFill=1;exitX=0.25;exitY=1;exitDx=0;exitDy=0;" parent="1" source="2" target="12" edge="1">
          <mxGeometry x="347" y="225.5" width="100" height="100" as="geometry">
            <mxPoint x="861.9999999999999" y="275.5" as="sourcePoint" />
            <mxPoint x="1466.9999999999998" y="345.5" as="targetPoint" />
          </mxGeometry>
        </mxCell>
        <mxCell id="61" value="" style="edgeStyle=elbowEdgeStyle;elbow=vertical;strokeWidth=2;rounded=0;startArrow=classic;startFill=1;exitX=0.25;exitY=1;exitDx=0;exitDy=0;" parent="1" source="2" target="13" edge="1">
          <mxGeometry x="-23" y="135.5" width="100" height="100" as="geometry">
            <mxPoint x="-23" y="235.5" as="sourcePoint" />
            <mxPoint x="77" y="135.5" as="targetPoint" />
          </mxGeometry>
        </mxCell>
        <mxCell id="vX5TqxPlbHoUfKtW-G97-174" value="" style="edgeStyle=orthogonalEdgeStyle;rounded=0;orthogonalLoop=1;jettySize=auto;html=1;entryX=0;entryY=0.5;entryDx=0;entryDy=0;" edge="1" parent="1" source="vX5TqxPlbHoUfKtW-G97-125" target="vX5TqxPlbHoUfKtW-G97-173">
          <mxGeometry relative="1" as="geometry" />
        </mxCell>
        <mxCell id="vX5TqxPlbHoUfKtW-G97-125" value="Resume" style="rounded=1;fillColor=#dae8fc;strokeColor=#6c8ebf;fontStyle=1;fontFamily=Tahoma;fontSize=14" vertex="1" parent="1">
          <mxGeometry x="876.9999999999998" y="335.5" width="190" height="80" as="geometry" />
        </mxCell>
        <mxCell id="vX5TqxPlbHoUfKtW-G97-131" value="" style="edgeStyle=orthogonalEdgeStyle;rounded=0;orthogonalLoop=1;jettySize=auto;html=1;entryX=0;entryY=0.5;entryDx=0;entryDy=0;" edge="1" parent="1" source="vX5TqxPlbHoUfKtW-G97-127" target="vX5TqxPlbHoUfKtW-G97-130">
          <mxGeometry relative="1" as="geometry" />
        </mxCell>
        <mxCell id="vX5TqxPlbHoUfKtW-G97-133" value="" style="edgeStyle=orthogonalEdgeStyle;rounded=0;orthogonalLoop=1;jettySize=auto;html=1;entryX=0;entryY=0.5;entryDx=0;entryDy=0;" edge="1" parent="1" source="vX5TqxPlbHoUfKtW-G97-127" target="vX5TqxPlbHoUfKtW-G97-132">
          <mxGeometry relative="1" as="geometry" />
        </mxCell>
        <mxCell id="vX5TqxPlbHoUfKtW-G97-136" value="" style="edgeStyle=orthogonalEdgeStyle;rounded=0;orthogonalLoop=1;jettySize=auto;html=1;entryX=0;entryY=0.5;entryDx=0;entryDy=0;" edge="1" parent="1" source="vX5TqxPlbHoUfKtW-G97-127" target="vX5TqxPlbHoUfKtW-G97-135">
          <mxGeometry relative="1" as="geometry" />
        </mxCell>
        <mxCell id="vX5TqxPlbHoUfKtW-G97-127" value="Contact" style="rounded=1;fillColor=#dae8fc;strokeColor=#6c8ebf;fontStyle=1;fontFamily=Tahoma;fontSize=14" vertex="1" parent="1">
          <mxGeometry x="1119.9999999999998" y="335.5" width="190" height="80" as="geometry" />
        </mxCell>
        <mxCell id="vX5TqxPlbHoUfKtW-G97-130" value="Github" style="shape=process;whiteSpace=wrap;html=1;backgroundOutline=1;fontSize=14;fontFamily=Tahoma;fillColor=#f8cecc;strokeColor=#b85450;rounded=1;fontStyle=1;" vertex="1" parent="1">
          <mxGeometry x="1241.9999999999998" y="600" width="120" height="60" as="geometry" />
        </mxCell>
        <mxCell id="vX5TqxPlbHoUfKtW-G97-132" value="LinkedIn" style="whiteSpace=wrap;html=1;fontSize=14;fontFamily=Tahoma;fillColor=#f8cecc;strokeColor=#b85450;rounded=1;fontStyle=1;" vertex="1" parent="1">
          <mxGeometry x="1241.9999999999998" y="520" width="120" height="60" as="geometry" />
        </mxCell>
        <mxCell id="vX5TqxPlbHoUfKtW-G97-135" value="E-mail" style="whiteSpace=wrap;html=1;fontSize=14;fontFamily=Tahoma;fillColor=#f8cecc;strokeColor=#b85450;rounded=1;fontStyle=1;" vertex="1" parent="1">
          <mxGeometry x="1241.9999999999998" y="440" width="120" height="60" as="geometry" />
        </mxCell>
        <mxCell id="vX5TqxPlbHoUfKtW-G97-158" value="" style="edgeStyle=orthogonalEdgeStyle;rounded=0;orthogonalLoop=1;jettySize=auto;html=1;exitX=0.5;exitY=1;exitDx=0;exitDy=0;" edge="1" parent="1" source="vX5TqxPlbHoUfKtW-G97-141" target="vX5TqxPlbHoUfKtW-G97-157">
          <mxGeometry relative="1" as="geometry" />
        </mxCell>
        <mxCell id="vX5TqxPlbHoUfKtW-G97-160" value="" style="edgeStyle=orthogonalEdgeStyle;rounded=0;orthogonalLoop=1;jettySize=auto;html=1;exitX=0.5;exitY=1;exitDx=0;exitDy=0;entryX=0;entryY=0.5;entryDx=0;entryDy=0;" edge="1" parent="1" source="vX5TqxPlbHoUfKtW-G97-141" target="vX5TqxPlbHoUfKtW-G97-159">
          <mxGeometry relative="1" as="geometry">
            <Array as="points">
              <mxPoint x="540" y="590" />
            </Array>
          </mxGeometry>
        </mxCell>
        <mxCell id="vX5TqxPlbHoUfKtW-G97-141" value="Project 1 Card" style="whiteSpace=wrap;html=1;fontSize=14;fontFamily=Tahoma;fillColor=#e1d5e7;strokeColor=#9673a6;rounded=1;fontStyle=1;" vertex="1" parent="1">
          <mxGeometry x="479.9999999999999" y="440" width="120" height="60" as="geometry" />
        </mxCell>
        <mxCell id="vX5TqxPlbHoUfKtW-G97-151" value="" style="edgeStyle=orthogonalEdgeStyle;rounded=0;orthogonalLoop=1;jettySize=auto;html=1;entryX=0;entryY=0.5;entryDx=0;entryDy=0;" edge="1" parent="1" target="vX5TqxPlbHoUfKtW-G97-154" source="13">
          <mxGeometry relative="1" as="geometry">
            <mxPoint x="170" y="470" as="sourcePoint" />
          </mxGeometry>
        </mxCell>
        <mxCell id="vX5TqxPlbHoUfKtW-G97-152" value="" style="edgeStyle=orthogonalEdgeStyle;rounded=0;orthogonalLoop=1;jettySize=auto;html=1;entryX=0;entryY=0.5;entryDx=0;entryDy=0;" edge="1" parent="1" target="vX5TqxPlbHoUfKtW-G97-155" source="13">
          <mxGeometry relative="1" as="geometry">
            <mxPoint x="170" y="470" as="sourcePoint" />
          </mxGeometry>
        </mxCell>
        <mxCell id="vX5TqxPlbHoUfKtW-G97-153" value="" style="edgeStyle=orthogonalEdgeStyle;rounded=0;orthogonalLoop=1;jettySize=auto;html=1;entryX=0;entryY=0.5;entryDx=0;entryDy=0;" edge="1" parent="1" target="vX5TqxPlbHoUfKtW-G97-156" source="13">
          <mxGeometry relative="1" as="geometry">
            <mxPoint x="170" y="470" as="sourcePoint" />
          </mxGeometry>
        </mxCell>
        <mxCell id="vX5TqxPlbHoUfKtW-G97-154" value="Skill n main page" style="shape=process;whiteSpace=wrap;html=1;backgroundOutline=1;fontSize=14;fontFamily=Tahoma;fillColor=#f8cecc;strokeColor=#b85450;rounded=1;fontStyle=1;" vertex="1" parent="1">
          <mxGeometry x="229.99999999999977" y="600" width="120" height="60" as="geometry" />
        </mxCell>
        <mxCell id="vX5TqxPlbHoUfKtW-G97-155" value="Skill 2 main page" style="whiteSpace=wrap;html=1;fontSize=14;fontFamily=Tahoma;fillColor=#f8cecc;strokeColor=#b85450;rounded=1;fontStyle=1;" vertex="1" parent="1">
          <mxGeometry x="229.99999999999977" y="520" width="120" height="60" as="geometry" />
        </mxCell>
        <mxCell id="vX5TqxPlbHoUfKtW-G97-156" value="Skill 1 main page" style="whiteSpace=wrap;html=1;fontSize=14;fontFamily=Tahoma;fillColor=#f8cecc;strokeColor=#b85450;rounded=1;fontStyle=1;" vertex="1" parent="1">
          <mxGeometry x="229.99999999999977" y="440" width="120" height="60" as="geometry" />
        </mxCell>
        <mxCell id="vX5TqxPlbHoUfKtW-G97-157" value="Project 1 Github" style="whiteSpace=wrap;html=1;fontSize=14;fontFamily=Tahoma;fillColor=#f8cecc;strokeColor=#b85450;rounded=1;fontStyle=1;" vertex="1" parent="1">
          <mxGeometry x="609.9999999999999" y="490" width="120" height="60" as="geometry" />
        </mxCell>
        <mxCell id="vX5TqxPlbHoUfKtW-G97-159" value="Project 1 GitPage" style="whiteSpace=wrap;html=1;fontSize=14;fontFamily=Tahoma;fillColor=#f8cecc;strokeColor=#b85450;rounded=1;fontStyle=1;" vertex="1" parent="1">
          <mxGeometry x="609.9999999999999" y="560" width="120" height="60" as="geometry" />
        </mxCell>
        <mxCell id="vX5TqxPlbHoUfKtW-G97-161" value="" style="edgeStyle=orthogonalEdgeStyle;rounded=0;orthogonalLoop=1;jettySize=auto;html=1;exitX=0.5;exitY=1;exitDx=0;exitDy=0;" edge="1" parent="1" source="vX5TqxPlbHoUfKtW-G97-163" target="vX5TqxPlbHoUfKtW-G97-164">
          <mxGeometry relative="1" as="geometry" />
        </mxCell>
        <mxCell id="vX5TqxPlbHoUfKtW-G97-162" value="" style="edgeStyle=orthogonalEdgeStyle;rounded=0;orthogonalLoop=1;jettySize=auto;html=1;exitX=0.5;exitY=1;exitDx=0;exitDy=0;entryX=0;entryY=0.5;entryDx=0;entryDy=0;" edge="1" parent="1" source="vX5TqxPlbHoUfKtW-G97-163" target="vX5TqxPlbHoUfKtW-G97-165">
          <mxGeometry relative="1" as="geometry">
            <Array as="points">
              <mxPoint x="540" y="790" />
            </Array>
          </mxGeometry>
        </mxCell>
        <mxCell id="vX5TqxPlbHoUfKtW-G97-163" value="Project 2 Card" style="whiteSpace=wrap;html=1;fontSize=14;fontFamily=Tahoma;fillColor=#e1d5e7;strokeColor=#9673a6;rounded=1;fontStyle=1;" vertex="1" parent="1">
          <mxGeometry x="479.9999999999999" y="640" width="120" height="60" as="geometry" />
        </mxCell>
        <mxCell id="vX5TqxPlbHoUfKtW-G97-164" value="Project 2 Github" style="whiteSpace=wrap;html=1;fontSize=14;fontFamily=Tahoma;fillColor=#f8cecc;strokeColor=#b85450;rounded=1;fontStyle=1;" vertex="1" parent="1">
          <mxGeometry x="609.9999999999999" y="690" width="120" height="60" as="geometry" />
        </mxCell>
        <mxCell id="vX5TqxPlbHoUfKtW-G97-165" value="Project 2 GitPage" style="whiteSpace=wrap;html=1;fontSize=14;fontFamily=Tahoma;fillColor=#f8cecc;strokeColor=#b85450;rounded=1;fontStyle=1;" vertex="1" parent="1">
          <mxGeometry x="609.9999999999999" y="760" width="120" height="60" as="geometry" />
        </mxCell>
        <mxCell id="vX5TqxPlbHoUfKtW-G97-167" value="" style="edgeStyle=orthogonalEdgeStyle;rounded=0;orthogonalLoop=1;jettySize=auto;html=1;exitX=0.5;exitY=1;exitDx=0;exitDy=0;" edge="1" parent="1" source="vX5TqxPlbHoUfKtW-G97-169" target="vX5TqxPlbHoUfKtW-G97-170">
          <mxGeometry relative="1" as="geometry" />
        </mxCell>
        <mxCell id="vX5TqxPlbHoUfKtW-G97-168" value="" style="edgeStyle=orthogonalEdgeStyle;rounded=0;orthogonalLoop=1;jettySize=auto;html=1;exitX=0.5;exitY=1;exitDx=0;exitDy=0;entryX=0;entryY=0.5;entryDx=0;entryDy=0;" edge="1" parent="1" source="vX5TqxPlbHoUfKtW-G97-169" target="vX5TqxPlbHoUfKtW-G97-171">
          <mxGeometry relative="1" as="geometry">
            <Array as="points">
              <mxPoint x="540" y="980" />
            </Array>
          </mxGeometry>
        </mxCell>
        <mxCell id="vX5TqxPlbHoUfKtW-G97-169" value="Project n Card" style="whiteSpace=wrap;html=1;fontSize=14;fontFamily=Tahoma;fillColor=#e1d5e7;strokeColor=#9673a6;rounded=1;fontStyle=1;" vertex="1" parent="1">
          <mxGeometry x="479.9999999999999" y="830" width="120" height="60" as="geometry" />
        </mxCell>
        <mxCell id="vX5TqxPlbHoUfKtW-G97-170" value="Project n Github" style="whiteSpace=wrap;html=1;fontSize=14;fontFamily=Tahoma;fillColor=#f8cecc;strokeColor=#b85450;rounded=1;fontStyle=1;" vertex="1" parent="1">
          <mxGeometry x="609.9999999999999" y="880" width="120" height="60" as="geometry" />
        </mxCell>
        <mxCell id="vX5TqxPlbHoUfKtW-G97-171" value="Project n GitPage" style="whiteSpace=wrap;html=1;fontSize=14;fontFamily=Tahoma;fillColor=#f8cecc;strokeColor=#b85450;rounded=1;fontStyle=1;" vertex="1" parent="1">
          <mxGeometry x="609.9999999999999" y="950" width="120" height="60" as="geometry" />
        </mxCell>
        <mxCell id="vX5TqxPlbHoUfKtW-G97-173" value="Viewable Document" style="whiteSpace=wrap;html=1;fontSize=14;fontFamily=Tahoma;fillColor=#e1d5e7;strokeColor=#9673a6;rounded=1;fontStyle=1;" vertex="1" parent="1">
          <mxGeometry x="999.9999999999998" y="440" width="120" height="60" as="geometry" />
        </mxCell>
        <mxCell id="vX5TqxPlbHoUfKtW-G97-181" value="Content" style="whiteSpace=wrap;html=1;fontSize=14;fontFamily=Tahoma;fillColor=#e1d5e7;strokeColor=#9673a6;rounded=1;fontStyle=1;" vertex="1" parent="1">
          <mxGeometry x="771.9999999999998" y="440" width="120" height="60" as="geometry" />
        </mxCell>
      </root>
    </mxGraphModel>
  </diagram>
</mxfile>
